<svg xmlns="http://www.w3.org/2000/svg" width="25" height="25" viewBox="0 0 25 25" fill="none">
<path d="M15.625 6.25H20.8333V12.5H15.625V6.25ZM9.375 12.5V6.25H14.5833V12.5H9.375ZM15.625 19.7917V13.5417H20.8333V19.7917H15.625ZM9.375 19.7917V13.5417H14.5833V19.7917H9.375ZM3.125 19.7917V13.5417H8.33333V19.7917H3.125ZM3.125 12.5V6.25H8.33333V12.5H3.125ZM4.16667 7.29167V11.4583H7.29167V7.29167H4.16667ZM10.4167 7.29167V11.4583H13.5417V7.29167H10.4167ZM16.6667 7.29167V11.4583H19.7917V7.29167H16.6667ZM4.16667 14.5833V18.75H7.29167V14.5833H4.16667ZM10.4167 14.5833V18.75H13.5417V14.5833H10.4167ZM16.6667 14.5833V18.75H19.7917V14.5833H16.6667Z" fill="white"/>
</svg>