<svg xmlns="http://www.w3.org/2000/svg" width="29" height="29" viewBox="0 0 29 29" fill="none">
  <path d="M10.7266 18.7303L17.3086 12.1483L17.3086 17.8994C17.3086 18.359 17.6857 18.7361 18.1454 18.7361C18.3658 18.7364 18.5773 18.6489 18.7331 18.4931C18.889 18.3372 18.9764 18.1257 18.9762 17.9053L18.9762 10.1389C18.9762 9.67929 18.605 9.30806 18.1454 9.30806L10.379 9.30806C9.91934 9.30806 9.54811 9.67929 9.54811 10.1389C9.54811 10.5985 9.91934 10.9698 10.379 10.9698L16.1301 10.9698L9.54811 17.5517C9.22402 17.8758 9.22402 18.4062 9.54811 18.7303C9.8722 19.0543 10.4025 19.0543 10.7266 18.7303Z" fill="#81A940"/>
</svg>