<svg xmlns="http://www.w3.org/2000/svg" width="20" height="20" viewBox="0 0 20 20" fill="none">
<path d="M19.1492 4.74064C18.5515 3.71017 16.9742 3.47814 14.5789 4.06408C13.4699 3.20661 12.1428 2.67734 10.7481 2.5364C9.35339 2.39545 7.94713 2.64848 6.68905 3.26674C5.43097 3.88499 4.3715 4.8437 3.63101 6.03394C2.89051 7.22417 2.49866 8.59823 2.49998 10C2.50008 10.3216 2.52043 10.6428 2.56092 10.9617C0.39764 13.2031 0.42889 14.5313 0.851546 15.2594C1.24998 15.95 2.08123 16.25 3.17498 16.25C3.93438 16.2343 4.68929 16.1294 5.4242 15.9375C6.53327 16.7942 7.86031 17.3227 9.25464 17.4631C10.649 17.6035 12.0547 17.3501 13.3123 16.7318C14.5699 16.1134 15.6289 15.1549 16.3691 13.965C17.1094 12.775 17.5011 11.4014 17.5 10C17.5001 9.68006 17.48 9.36041 17.4398 9.04299C18.4164 8.02736 19.0664 7.06252 19.2875 6.23674C19.4398 5.66486 19.3937 5.16174 19.1492 4.74064ZM9.99998 3.75002C11.4156 3.75147 12.7888 4.23278 13.8956 5.11535C15.0024 5.99793 15.7773 7.22964 16.0937 8.60939C14.7609 9.86408 12.957 11.1508 11.2445 12.1352C9.09217 13.3703 7.22498 14.1406 5.73592 14.5625C4.81879 13.7071 4.18043 12.5955 3.90394 11.3722C3.62745 10.149 3.72564 8.8708 4.18573 7.70413C4.64582 6.53747 5.4465 5.53634 6.48352 4.83109C7.52055 4.12584 8.74587 3.74913 9.99998 3.75002ZM1.9328 14.632C1.81873 14.436 1.88202 14.0664 2.10623 13.6164C2.32796 13.1948 2.59772 12.8003 2.91014 12.4406C3.21983 13.3379 3.69702 14.1682 4.31639 14.8875C2.96873 15.1141 2.12811 14.9695 1.9328 14.632ZM9.99998 16.25C8.94618 16.2511 7.90945 15.9838 6.98748 15.4735C8.67974 14.875 10.3126 14.1201 11.8648 13.2188C13.5508 12.2508 15.043 11.2016 16.2453 10.1656C16.2008 11.7931 15.5235 13.3391 14.3573 14.4752C13.1912 15.6113 11.6281 16.248 9.99998 16.25ZM18.0797 5.9133C17.9469 6.40627 17.5961 6.97033 17.093 7.56408C16.7841 6.66574 16.3068 5.83451 15.6867 5.11486C16.7969 4.93127 17.825 4.94533 18.0695 5.36799C18.1398 5.49064 18.1437 5.67424 18.0797 5.9133Z" fill="white"/>
</svg>