<?xml version="1.0" standalone="no"?>
<!DOCTYPE svg PUBLIC "-//W3C//DTD SVG 20010904//EN"
 "http://www.w3.org/TR/2001/REC-SVG-20010904/DTD/svg10.dtd">
<svg version="1.0" xmlns="http://www.w3.org/2000/svg"
 width="2083.000000pt" height="2083.000000pt" viewBox="0 0 2083.000000 2083.000000"
 preserveAspectRatio="xMidYMid meet">
<metadata>
Created by potrace 1.14, written by Peter Selinger 2001-2017
</metadata>
<g transform="translate(0.000000,2083.000000) scale(0.100000,-0.100000)"
fill="#000000" stroke="none">
<path d="M9995 18694 c-866 -67 -1582 -246 -2323 -580 -1119 -505 -2104 -1346
-2765 -2359 -916 -1406 -1257 -3177 -941 -4895 234 -1275 817 -2449 1679
-3380 78 -84 2883 -3490 4558 -5533 l55 -67 2313 2647 c1272 1457 2385 2722
2472 2812 729 753 1256 1622 1582 2606 415 1254 464 2627 140 3890 -465 1810
-1677 3308 -3366 4160 -743 375 -1486 590 -2353 681 -143 15 -915 28 -1051 18z
m965 -134 c1596 -149 3002 -814 4100 -1936 1029 -1052 1627 -2375 1772 -3919
18 -190 18 -951 0 -1140 -102 -1077 -414 -2044 -945 -2930 -266 -443 -550
-809 -942 -1215 -82 -85 -1169 -1322 -2414 -2748 -1246 -1426 -2268 -2591
-2272 -2590 -4 2 -996 1206 -2204 2677 -1208 1471 -2249 2731 -2312 2800 -586
635 -1031 1359 -1338 2176 -417 1111 -536 2356 -335 3525 239 1390 886 2609
1883 3548 1106 1043 2504 1652 4037 1761 159 12 819 6 970 -9z"/>
<path d="M10085 17143 c-506 -41 -864 -112 -1285 -253 -1007 -336 -1887 -987
-2514 -1858 -37 -52 -69 -99 -72 -106 -3 -8 21 -30 58 -55 l63 -41 20 27 c11
14 66 88 122 164 267 360 615 710 985 989 464 351 994 617 1563 785 969 286
1982 267 2944 -54 1532 -512 2718 -1749 3167 -3305 280 -969 254 -1986 -77
-2952 -342 -1001 -1021 -1883 -1909 -2482 -696 -469 -1517 -755 -2364 -822
-165 -13 -595 -13 -751 0 -634 54 -1202 208 -1760 479 -230 111 -355 183 -585
336 -1178 783 -1968 2049 -2149 3445 -26 198 -41 395 -41 532 l0 108 365 2
366 3 -403 698 c-221 383 -405 697 -408 697 -3 0 -186 -314 -407 -698 l-402
-697 362 -3 363 -2 12 -238 c19 -371 62 -659 148 -1005 302 -1204 1060 -2276
2104 -2974 1239 -829 2774 -1068 4215 -657 1360 389 2526 1365 3150 2639 266
543 418 1065 492 1690 26 218 26 885 0 1100 -126 1037 -506 1921 -1168 2716
-133 159 -449 475 -609 608 -839 699 -1823 1100 -2895 1180 -126 10 -601 13
-700 4z"/>
<path d="M7930 10656 c-62 -37 -135 -80 -580 -336 -173 -100 -317 -184 -319
-186 -7 -7 20 -52 130 -219 592 -891 1513 -1504 2544 -1694 255 -47 356 -55
700 -56 404 0 587 20 921 100 1016 244 1903 904 2453 1827 l22 37 -38 24 c-97
60 -912 527 -920 527 -6 0 -27 -28 -48 -62 -374 -612 -992 -1073 -1677 -1253
-551 -144 -1129 -116 -1667 81 -133 49 -395 179 -519 258 -353 225 -688 563
-893 902 -27 46 -51 84 -52 84 -1 0 -27 -15 -57 -34z"/>
</g>
</svg>
