<svg xmlns="http://www.w3.org/2000/svg" width="20" height="20" viewBox="0 0 20 20" fill="none">
<path d="M17.1418 8.88331C17.0252 8.54998 16.7085 8.33331 16.3335 8.33331H10.3418C9.9585 8.33331 9.65016 8.54998 9.52516 8.88331L8.3335 12.3083L8.34183 16.9C8.34183 17.2166 8.60016 17.5 8.91683 17.5H9.4335C9.75016 17.5 10.0002 17.1833 10.0002 16.8666V15.8333H16.6668V16.8666C16.6668 17.1833 16.9252 17.5 17.2418 17.5H17.7502C18.0668 17.5 18.3252 17.2166 18.3252 16.9L18.3335 15.7583V12.3083L17.1418 8.88331ZM10.3418 9.16665H16.3335L17.1918 11.6666H9.4835L10.3418 9.16665ZM10.0002 14.1666C9.54183 14.1666 9.16683 13.7916 9.16683 13.3333C9.16683 12.875 9.54183 12.5 10.0002 12.5C10.4585 12.5 10.8335 12.875 10.8335 13.3333C10.8335 13.7916 10.4585 14.1666 10.0002 14.1666ZM16.6668 14.1666C16.2085 14.1666 15.8335 13.7916 15.8335 13.3333C15.8335 12.875 16.2085 12.5 16.6668 12.5C17.1252 12.5 17.5002 12.875 17.5002 13.3333C17.5002 13.7916 17.1252 14.1666 16.6668 14.1666Z" fill="white"/>
<path d="M11.6665 7.5H12.4998V2.5H5.83317V6.66667H1.6665V17.5H2.49984V7.5H6.6665V3.33333H11.6665V7.5Z" fill="white"/>
<path d="M4.1665 9.16669H5.83317V10.8334H4.1665V9.16669ZM8.33317 4.16669H9.99984V5.83335H8.33317V4.16669ZM4.1665 12.5H5.83317V14.1667H4.1665V12.5ZM4.1665 15.8334H5.83317V17.5H4.1665V15.8334Z" fill="white"/>
</svg>