<svg xmlns="http://www.w3.org/2000/svg" width="20" height="20" viewBox="0 0 20 20" fill="none">
<path fill-rule="evenodd" clip-rule="evenodd" d="M9.12 1.04169H10.88C12.4117 1.04169 13.625 1.04169 14.5742 1.16919C15.5508 1.30085 16.3417 1.57752 16.9658 2.20085C17.5892 2.82502 17.8658 3.61585 17.9975 4.59252C18.125 5.54252 18.125 6.75502 18.125 8.28669V11.7134C18.125 13.245 18.125 14.4584 17.9975 15.4075C17.8658 16.3842 17.5892 17.175 16.9658 17.7992C16.3417 18.4225 15.5508 18.6992 14.5742 18.8309C13.6242 18.9584 12.4117 18.9584 10.88 18.9584H9.12C7.58833 18.9584 6.375 18.9584 5.42583 18.8309C4.44917 18.6992 3.65833 18.4225 3.03417 17.7992C2.41083 17.175 2.13417 16.3842 2.0025 15.4075C1.875 14.4575 1.875 13.245 1.875 11.7134V8.28669C1.875 6.75502 1.875 5.54169 2.0025 4.59252C2.13417 3.61585 2.41083 2.82502 3.03417 2.20085C3.65833 1.57752 4.44917 1.30085 5.42583 1.16919C6.37583 1.04169 7.58833 1.04169 9.12 1.04169ZM5.59167 2.40835C4.75333 2.52085 4.27 2.73252 3.91667 3.08502C3.565 3.43752 3.35333 3.92085 3.24083 4.75919C3.12583 5.61585 3.12417 6.74419 3.12417 8.33335V11.6667C3.12417 13.2559 3.12583 14.385 3.24083 15.2417C3.35333 16.0792 3.565 16.5625 3.9175 16.915C4.27 17.2675 4.75333 17.4792 5.59167 17.5917C6.44833 17.7067 7.57667 17.7084 9.16583 17.7084H10.8325C12.4217 17.7084 13.5508 17.7067 14.4075 17.5917C15.245 17.4792 15.7283 17.2675 16.0808 16.915C16.4333 16.5625 16.645 16.0792 16.7575 15.2409C16.8725 14.385 16.8742 13.2559 16.8742 11.6667V8.33335C16.8742 6.74419 16.8725 5.61585 16.7575 4.75835C16.645 3.92085 16.4333 3.43752 16.0808 3.08502C15.7283 2.73252 15.245 2.52085 14.4067 2.40835C13.5508 2.29335 12.4217 2.29169 10.8325 2.29169H9.16583C7.57667 2.29169 6.44917 2.29335 5.59167 2.40835ZM6.04167 8.33335C6.04167 8.16759 6.10751 8.00862 6.22472 7.89141C6.34194 7.7742 6.50091 7.70835 6.66667 7.70835H13.3333C13.4991 7.70835 13.6581 7.7742 13.7753 7.89141C13.8925 8.00862 13.9583 8.16759 13.9583 8.33335C13.9583 8.49911 13.8925 8.65808 13.7753 8.77529C13.6581 8.89251 13.4991 8.95835 13.3333 8.95835H6.66667C6.50091 8.95835 6.34194 8.89251 6.22472 8.77529C6.10751 8.65808 6.04167 8.49911 6.04167 8.33335ZM6.04167 11.6667C6.04167 11.5009 6.10751 11.342 6.22472 11.2247C6.34194 11.1075 6.50091 11.0417 6.66667 11.0417H10.8333C10.9991 11.0417 11.1581 11.1075 11.2753 11.2247C11.3925 11.342 11.4583 11.5009 11.4583 11.6667C11.4583 11.8324 11.3925 11.9914 11.2753 12.1086C11.1581 12.2258 10.9991 12.2917 10.8333 12.2917H6.66667C6.50091 12.2917 6.34194 12.2258 6.22472 12.1086C6.10751 11.9914 6.04167 11.8324 6.04167 11.6667Z" fill="white"/>
</svg>