<svg xmlns="http://www.w3.org/2000/svg" width="25" height="25" viewBox="0 0 25 25" fill="none">
  <path d="M21.7708 2.0835H3.22909C2.92519 2.0835 2.63374 2.20422 2.41886 2.4191C2.20397 2.63399 2.08325 2.92544 2.08325 3.22933V21.771C2.08325 22.0749 2.20397 22.3663 2.41886 22.5812C2.63374 22.7961 2.92519 22.9168 3.22909 22.9168H13.2083V14.8439H10.4999V11.7189H13.2083V9.37516C13.1522 8.82491 13.2171 8.26905 13.3986 7.74656C13.5801 7.22407 13.8736 6.74761 14.2587 6.35059C14.6438 5.95358 15.1111 5.64562 15.6279 5.44833C16.1446 5.25103 16.6982 5.16918 17.2499 5.2085C18.0607 5.20351 18.871 5.24524 19.677 5.3335V8.146H18.0208C16.7083 8.146 16.4583 8.771 16.4583 9.67725V11.6877H19.5833L19.177 14.8127H16.4583V22.9168H21.7708C21.9212 22.9168 22.0702 22.8872 22.2092 22.8296C22.3483 22.772 22.4746 22.6876 22.581 22.5812C22.6874 22.4748 22.7718 22.3485 22.8294 22.2095C22.8869 22.0705 22.9166 21.9215 22.9166 21.771V3.22933C22.9166 3.07886 22.8869 2.92986 22.8294 2.79084C22.7718 2.65182 22.6874 2.5255 22.581 2.4191C22.4746 2.3127 22.3483 2.2283 22.2092 2.17072C22.0702 2.11313 21.9212 2.0835 21.7708 2.0835Z" fill="black" fill-opacity="0.5"/>
</svg>