<svg xmlns="http://www.w3.org/2000/svg" width="20" height="20" viewBox="0 0 20 20" fill="none">
<g clip-path="url(#clip0_1_427)">
<path d="M11.6666 6.66668H3.88881C3.74147 6.66668 3.60016 6.60815 3.49597 6.50396C3.39178 6.39977 3.33325 6.25846 3.33325 6.11112V3.8889C3.33325 3.74156 3.39178 3.60025 3.49597 3.49606C3.60016 3.39188 3.74147 3.33334 3.88881 3.33334H11.6666C11.8139 3.33334 11.9552 3.39188 12.0594 3.49606C12.1636 3.60025 12.2221 3.74156 12.2221 3.8889V6.11112C12.2221 6.25846 12.1636 6.39977 12.0594 6.50396C11.9552 6.60815 11.8139 6.66668 11.6666 6.66668ZM4.44436 5.55557H11.111V4.41112H4.44436V5.55557Z" fill="white"/>
<path d="M11.6666 7.82224H3.88881C3.74147 7.82224 3.60016 7.88077 3.49597 7.98495C3.39178 8.08914 3.33325 8.23045 3.33325 8.37779V10.5556C3.33325 10.7029 3.39178 10.8442 3.49597 10.9484C3.60016 11.0526 3.74147 11.1111 3.88881 11.1111H10.1999L12.2221 9.05557V8.37779C12.2221 8.23045 12.1636 8.08914 12.0594 7.98495C11.9552 7.88077 11.8139 7.82224 11.6666 7.82224ZM11.111 10H4.44436V8.8889H11.111V10Z" fill="white"/>
<path d="M6.14442 17.5056V17.4722L6.3222 16.7H2.2222V2.22223H13.3333V7.91667L14.4444 6.86667V1.66667C14.4444 1.51933 14.3859 1.37802 14.2817 1.27383C14.1775 1.16965 14.0362 1.11111 13.8889 1.11111H1.66664C1.5193 1.11111 1.37799 1.16965 1.2738 1.27383C1.16962 1.37802 1.11108 1.51933 1.11108 1.66667V17.2222C1.11108 17.3696 1.16962 17.5109 1.2738 17.6151C1.37799 17.7193 1.5193 17.7778 1.66664 17.7778H6.11108C6.11566 17.6864 6.1268 17.5954 6.14442 17.5056Z" fill="white"/>
<path d="M12.2222 10.65L11.7888 11.0889C11.8963 11.0667 11.9949 11.0132 12.072 10.9351C12.1491 10.857 12.2014 10.7578 12.2222 10.65Z" fill="white"/>
<path d="M3.33325 14.9667C3.33325 15.114 3.39178 15.2553 3.49597 15.3595C3.60016 15.4637 3.74147 15.5222 3.88881 15.5222H6.5777L6.74436 14.8L6.81659 14.4945V14.4667H4.44436V13.3333H7.96659L9.0777 12.2222H3.88881C3.74147 12.2222 3.60016 12.2808 3.49597 12.3849C3.39178 12.4891 3.33325 12.6304 3.33325 12.7778V14.9667Z" fill="white"/>
<path d="M18.6055 9.2611L16.7332 7.38888C16.6502 7.30556 16.5514 7.23946 16.4428 7.19436C16.3341 7.14925 16.2176 7.12604 16.0999 7.12604C15.9822 7.12604 15.8657 7.14925 15.7571 7.19436C15.6484 7.23946 15.5497 7.30556 15.4666 7.38888L7.84991 15.05L7.22213 17.7222C7.19863 17.8375 7.1981 17.9563 7.22058 18.0718C7.24305 18.1873 7.28809 18.2972 7.35312 18.3952C7.41814 18.4933 7.50187 18.5775 7.59951 18.6432C7.69716 18.7088 7.80679 18.7546 7.92213 18.7778C7.97939 18.7835 8.03709 18.7835 8.09435 18.7778C8.16242 18.7889 8.23184 18.7889 8.29991 18.7778L10.9944 18.1833L18.6055 10.5555C18.6886 10.4729 18.7546 10.3747 18.7996 10.2665C18.8447 10.1583 18.8678 10.0422 18.8678 9.92499C18.8678 9.80778 18.8447 9.69173 18.7996 9.58351C18.7546 9.47529 18.6886 9.37705 18.6055 9.29444V9.2611ZM10.4277 17.1722L8.39435 17.6222L8.8888 15.6055L14.5999 9.83333L16.1666 11.4L10.4277 17.1722ZM16.7944 10.7722L15.2277 9.20555L16.111 8.33333L17.6888 9.9111L16.7944 10.7722Z" fill="white"/>
</g>
<defs>
<clipPath id="clip0_1_427">
<rect width="20" height="20" fill="white"/>
</clipPath>
</defs>
</svg>