<svg xmlns="http://www.w3.org/2000/svg" width="20" height="20" viewBox="0 0 20 20" fill="none">
<path d="M10 16.875C7.75 16.875 5.5625 15.75 4.25 13.75H7.5V12.5H2.5V17.5H3.75V15.1875C5.3125 17.0625 7.5625 18.125 10 18.125V16.875ZM19.375 14.375V13.125H18.0625C18 12.75 17.8125 12.375 17.625 12L18.5625 11.0625L17.6875 10.1875L16.75 11.125C16.4375 10.9375 16.0625 10.75 15.625 10.6875V9.375H14.375V10.6875C14 10.75 13.625 10.9375 13.25 11.125L12.3125 10.1875L11.4375 11.0625L12.375 12C12.1875 12.3125 12 12.6875 11.9375 13.125H10.625V14.375H11.9375C12 14.75 12.1875 15.125 12.375 15.5L11.4375 16.4375L12.3125 17.3125L13.25 16.375C13.5625 16.5625 13.9375 16.75 14.375 16.8125V18.125H15.625V16.8125C16 16.75 16.375 16.5625 16.75 16.375L17.6875 17.3125L18.5625 16.4375L17.625 15.5C17.8125 15.1875 18 14.8125 18.0625 14.375H19.375ZM15 15.625C13.9375 15.625 13.125 14.8125 13.125 13.75C13.125 12.6875 13.9375 11.875 15 11.875C16.0625 11.875 16.875 12.6875 16.875 13.75C16.875 14.8125 16.0625 15.625 15 15.625ZM12.5 6.25H15.75C13.6875 3.0625 9.4375 2.1875 6.25 4.25C4.3125 5.5 3.125 7.6875 3.125 10H1.875C1.875 5.5 5.5 1.875 10 1.875C12.4375 1.875 14.6875 2.9375 16.25 4.8125V2.5H17.5V7.5H12.5V6.25Z" fill="white"/>
</svg>