<svg xmlns="http://www.w3.org/2000/svg" width="25" height="25" viewBox="0 0 25 25" fill="none">
  <path d="M10.4166 15.6252L15.8228 12.5002L10.4166 9.37516V15.6252ZM22.4583 7.46891C22.5937 7.9585 22.6874 8.61475 22.7499 9.44808C22.8228 10.2814 22.8541 11.0002 22.8541 11.6252L22.9166 12.5002C22.9166 14.7814 22.7499 16.4585 22.4583 17.5314C22.1978 18.4689 21.5937 19.0731 20.6562 19.3335C20.1666 19.4689 19.2708 19.5627 17.8958 19.6252C16.5416 19.6981 15.302 19.7293 14.1562 19.7293L12.4999 19.7918C8.13534 19.7918 5.41659 19.6252 4.34367 19.3335C3.40617 19.0731 2.802 18.4689 2.54159 17.5314C2.40617 17.0418 2.31242 16.3856 2.24992 15.5522C2.177 14.7189 2.14575 14.0002 2.14575 13.3752L2.08325 12.5002C2.08325 10.2189 2.24992 8.54183 2.54159 7.46891C2.802 6.53141 3.40617 5.92725 4.34367 5.66683C4.83325 5.53141 5.72909 5.43766 7.10409 5.37516C8.45825 5.30225 9.69784 5.271 10.8437 5.271L12.4999 5.2085C16.8645 5.2085 19.5833 5.37516 20.6562 5.66683C21.5937 5.92725 22.1978 6.53141 22.4583 7.46891Z" fill="black" fill-opacity="0.5"/>
</svg>